{
.appVersion = "3133";
.formatVersion = 3;
date = "2023-06-17 09:48:53 +0000";
familyName = EorzeaEaseMaru;
fontMaster = (
{
id = m01;
metricValues = (
{
over = 16;
pos = 800;
},
{
over = -16;
},
{
over = -16;
pos = -200;
}
);
name = Regular;
}
);
glyphs = (
{
glyphname = A;
lastChange = "2023-02-02 13:57:18 +0000";
layers = (
{
layerId = m01;
shapes = (
{
attr = {
fillColor = (0,255);
};
closed = 1;
nodes = (
(630,650,o),
(608,658,o),
(608,658,c),
(608,658,o),
(545,700,o),
(430,700,c),
(330,700,o),
(180,650,o),
(180,650,c),
(180,775,l),
(180,775,o),
(180,800,o),
(155,800,c),
(141,800,o),
(120,800,o),
(105,800,c),
(80,800,o),
(80,775,o),
(80,775,c),
(80,775,o),
(80,800,o),
(83,201,c),
(83,122,o),
(80,50,o),
(55,50,c),
(55,50,o),
(30,50,o),
(30,25,c),
(30,0,o),
(55,0,o),
(55,0,c),
(155,0,l),
(155,0,o),
(185,0,o),
(185,75,c),
(185,75,o),
(229,-2,o),
(380,0,c),
(630,0,o),
(630,225,o),
(630,225,c),
(630,225,o),
(630,450,o),
(355,450,c),
(255,450,o),
(180,400,o),
(180,400,c),
(180,550,l),
(180,550,o),
(295,600,o),
(430,600,c),
(530,600,o),
(580,550,o),
(605,550,c),
(630,550,o),
(630,575,o),
(630,575,c),
(630,600,o),
(630,600,o),
(630,625,c)
);
},
{
attr = {
fillColor = (0,255);
};
closed = 1;
nodes = (
(180,300,o),
(280,350,o),
(355,350,c),
(527,350,o),
(530,225,o),
(530,225,c),
(530,225,o),
(530,100,o),
(355,100,c),
(205,100,o),
(180,199,o),
(180,199,c),
(180,300,l)
);
}
);
width = 660;
}
);
unicode = 65;
},
{
glyphname = B;
lastChange = "2023-02-04 12:57:16 +0000";
layers = (
{
layerId = m01;
shapes = (
{
attr = {
fillColor = (0,255);
};
closed = 1;
nodes = (
(330,640,o),
(330,402,o),
(330,300,c),
(330,250,o),
(380,250,o),
(380,250,c),
(380,250,o),
(414,250,o),
(430,250,c),
(530,250,o),
(730,400,o),
(730,550,c),
(730,700,o),
(630,800,o),
(530,800,c),
(230,800,o),
(30,530,o),
(30,350,c),
(30,165,o),
(130,0,o),
(330,0,c),
(480,0,o),
(536,53,o),
(605,100,c),
(605,100,o),
(630,115,o),
(630,145,c),
(630,155,o),
(630,157,o),
(630,175,c),
(630,235,o),
(586,200,o),
(586,200,c),
(530,159,o),
(266,-40,o),
(158,260,c),
(75,490,o),
(330,640,o),
(330,640,c)
);
},
{
attr = {
fillColor = (0,255);
};
closed = 1;
nodes = (
(430,674,o),
(480,695,o),
(530,695,c),
(580,695,o),
(630,650,o),
(630,550,c),
(630,405,o),
(430,345,o),
(430,345,c),
(430,674,l)
);
}
);
width = 760;
}
);
unicode = 66;
},
{
glyphname = C;
lastChange = "2023-02-04 13:03:01 +0000";
layers = (
{
layerId = m01;
shapes = (
{
attr = {
fillColor = (0,255);
};
closed = 1;
nodes = (
(530,0,o),
(630,100,o),
(630,175,c),
(630,300,o),
(631,624,o),
(630,775,c),
(630,800,o),
(605,799,o),
(605,799,c),
(430,800,l),
(430,800,o),
(224,814,o),
(92,652,c),
(51,601,o),
(30,550,o),
(30,400,c),
(30,325,o),
(37,178,o),
(129,100,c),
(258,-10,o),
(430,0,o),
(430,0,c),
(430,0,o),
(424,0,o),
(455,0,c)
);
},
{
attr = {
fillColor = (0,255);
};
closed = 1;
nodes = (
(505,700,o),
(530,700,o),
(530,675,c),
(531,525,o),
(530,300,o),
(530,200,c),
(530,150,o),
(480,100,o),
(430,100,c),
(430,100,o),
(331,91,o),
(258,137,c),
(154,203,o),
(130,300,o),
(130,400,c),
(130,525,o),
(141,604,o),
(243,662,c),
(318,704,o),
(505,700,o),
(505,700,c)
);
}
);
width = 660;
}
);
unicode = 67;
},
{
glyphname = D;
lastChange = "2023-02-06 04:57:29 +0000";
layers = (
{
layerId = m01;
shapes = (
{
attr = {
fillColor = (0,255);
};
closed = 1;
nodes = (
(380,800,o),
(30,700,o),
(30,250,c),
(30,150,o),
(85,0,o),
(280,0,c),
(505,0,o),
(530,400,o),
(530,600,c),
(529,700,o),
(530,700,o),
(530,700,c),
(530,700,o),
(532,700,o),
(580,700,c),
(730,700,o),
(730,525,o),
(730,525,c),
(730,525,o),
(730,500,o),
(755,500,c),
(770,500,o),
(788,500,o),
(805,500,c),
(830,500,o),
(830,525,o),
(830,525,c),
(830,525,o),
(830,800,o),
(580,800,c)
);
},
{
attr = {
fillColor = (0,255);
};
closed = 1;
nodes = (
(428,686,o),
(447,161,o),
(310,114,c),
(206,78,o),
(108,204,o),
(138,348,c),
(205,662,o),
(428,686,o),
(428,686,c)
);
}
);
width = 860;
}
);
unicode = 68;
},
{
glyphname = E;
lastChange = "2023-02-06 05:12:27 +0000";
layers = (
{
layerId = m01;
shapes = (
{
attr = {
fillColor = (0,255);
};
closed = 1;
nodes = (
(130,25,l),
(130,25,o),
(130,0,o),
(155,0,c),
(238,-1,o),
(530,0,o),
(605,0,c),
(630,0,o),
(630,25,o),
(630,25,c),
(630,25,o),
(631,602,o),
(630,725,c),
(630,750,o),
(605,750,o),
(605,750,c),
(605,750,o),
(280,750,o),
(180,750,c),
(129,750,o),
(130,775,o),
(130,775,c),
(130,775,o),
(130,800,o),
(105,800,c),
(90,800,o),
(70,800,o),
(55,800,c),
(30,800,o),
(30,775,o),
(30,775,c),
(30,775,o),
(30,669,o),
(130,667,c),
(232,665,o),
(530,665,o),
(530,665,c),
(530,425,l),
(530,425,o),
(238,425,o),
(205,425,c),
(180,425,o),
(180,400,o),
(180,400,c),
(180,370,l),
(180,370,o),
(180,345,o),
(205,345,c),
(230,345,o),
(530,345,o),
(530,345,c),
(530,85,l),
(530,85,o),
(240,84,o),
(155,85,c),
(130,85,o),
(130,65,o),
(130,65,c)
);
}
);
width = 660;
}
);
unicode = 69;
},
{
glyphname = F;
lastChange = "2023-02-06 04:51:33 +0000";
layers = (
{
layerId = m01;
shapes = (
{
attr = {
fillColor = (0,255);
};
closed = 1;
nodes = (
(80,0,o),
(80,0,o),
(105,0,c),
(130,0,o),
(130,25,o),
(130,25,c),
(130,25,o),
(132,426,o),
(130,625,c),
(130,675,o),
(155,699,o),
(205,699,c),
(305,699,o),
(380,700,o),
(480,700,c),
(530,700,o),
(530,625,o),
(530,625,c),
(530,625,o),
(530,600,o),
(555,600,c),
(570,600,o),
(590,600,o),
(605,600,c),
(630,600,o),
(630,625,o),
(630,625,c),
(630,625,o),
(630,800,o),
(505,800,c),
(415,800,o),
(254,800,o),
(155,800,c),
(105,800,o),
(30,725,o),
(30,675,c),
(30,500,o),
(30,25,o),
(30,25,c),
(30,25,o),
(30,0,o),
(55,0,c)
);
}
);
width = 660;
}
);
unicode = 70;
},
{
glyphname = G;
lastChange = "2023-02-11 15:02:30 +0000";
layers = (
{
layerId = m01;
shapes = (
{
attr = {
fillColor = (0,255);
};
closed = 1;
nodes = (
(630,600,o),
(630,800,o),
(330,800,c),
(130,800,o),
(30,650,o),
(30,400,c),
(30,150,o),
(130,0,o),
(330,0,c),
(630,0,o),
(630,200,o),
(630,200,c),
(630,350,l),
(705,350,l),
(705,350,o),
(730,350,o),
(730,375,c),
(730,388,o),
(730,412,o),
(730,425,c),
(730,450,o),
(705,450,o),
(705,450,c),
(355,450,l),
(355,450,o),
(330,450,o),
(330,425,c),
(330,412,o),
(330,390,o),
(330,375,c),
(330,350,o),
(355,350,o),
(355,350,c),
(530,350,l),
(530,200,l),
(530,200,o),
(530,100,o),
(330,100,c),
(230,100,o),
(130,200,o),
(130,400,c),
(130,600,o),
(180,700,o),
(330,700,c),
(530,700,o),
(530,600,o),
(530,600,c),
(530,450,l),
(630,450,l),
(630,600,l)
);
}
);
width = 760;
}
);
unicode = 71;
},
{
glyphname = H;
lastChange = "2023-02-12 05:03:36 +0000";
layers = (
{
layerId = m01;
shapes = (
{
attr = {
fillColor = (0,255);
};
closed = 1;
nodes = (
(130,775,o),
(130,800,o),
(105,800,c),
(92,800,o),
(69,800,o),
(55,800,c),
(30,800,o),
(30,775,o),
(30,775,c),
(30,25,l),
(30,25,o),
(30,0,o),
(55,0,c),
(69,0,o),
(91,0,o),
(105,0,c),
(130,0,o),
(130,25,o),
(130,25,c),
(132,395,l),
(132,395,o),
(230,500,o),
(330,500,c),
(430,500,o),
(480,400,o),
(480,300,c),
(480,100,o),
(355,50,o),
(355,50,c),
(355,50,o),
(330,38,o),
(330,25,c),
(330,0,o),
(355,0,o),
(355,0,c),
(355,0,o),
(392,0,o),
(405,0,c),
(430,0,o),
(451,14,o),
(451,14,c),
(451,14,o),
(578,98,o),
(580,300,c),
(580,500,o),
(430,550,o),
(430,550,c),
(430,550,o),
(530,600,o),
(530,700,c),
(530,757,o),
(530,775,o),
(530,775,c),
(530,775,o),
(530,800,o),
(505,800,c),
(488,800,o),
(467,800,o),
(455,800,c),
(430,800,o),
(430,775,o),
(430,775,c),
(430,775,o),
(430,725,o),
(430,700,c),
(430,650,o),
(380,600,o),
(330,600,c),
(230,600,o),
(130,500,o),
(130,500,c),
(130,775,l)
);
}
);
width = 610;
}
);
unicode = 72;
},
{
glyphname = I;
lastChange = "2023-02-11 15:04:49 +0000";
layers = (
{
layerId = m01;
shapes = (
{
attr = {
fillColor = (0,255);
};
closed = 1;
nodes = (
(91,0,o),
(68,0,o),
(55,0,c),
(30,0,o),
(30,25,o),
(30,25,c),
(30,775,l),
(30,775,o),
(30,800,o),
(55,800,c),
(68,800,o),
(92,800,o),
(105,800,c),
(130,800,o),
(130,775,o),
(130,775,c),
(130,25,l),
(130,25,o),
(130,0,o),
(105,0,c)
);
}
);
width = 160;
}
);
unicode = 73;
},
{
glyphname = J;
lastChange = "2023-02-12 04:43:13 +0000";
layers = (
{
layerId = m01;
shapes = (
{
attr = {
fillColor = (0,255);
};
closed = 1;
nodes = (
(30,775,o),
(30,404,o),
(30,200,c),
(30,100,o),
(130,0,o),
(280,0,c),
(430,0,o),
(531,96,o),
(530,175,c),
(530,175,o),
(530,200,o),
(505,200,c),
(490,200,o),
(469,200,o),
(455,200,c),
(430,200,o),
(430,175,o),
(430,175,c),
(430,175,o),
(430,100,o),
(280,100,c),
(130,100,o),
(130,225,o),
(130,225,c),
(130,350,l),
(505,350,l),
(505,350,o),
(530,350,o),
(530,375,c),
(530,388,o),
(530,411,o),
(530,425,c),
(530,450,o),
(505,450,o),
(505,450,c),
(130,450,l),
(130,775,l),
(130,775,o),
(130,800,o),
(105,800,c),
(95,800,o),
(65,800,o),
(55,800,c),
(30,800,o),
(30,775,o),
(30,775,c)
);
}
);
width = 560;
}
);
unicode = 74;
},
{
glyphname = K;
lastChange = "2023-02-14 03:14:49 +0000";
layers = (
{
layerId = m01;
shapes = (
{
attr = {
fillColor = (0,255);
};
closed = 1;
nodes = (
(30,426,l),
(30,426,o),
(30,400,o),
(55,400,c),
(70,400,o),
(90,400,o),
(105,400,c),
(130,400,o),
(130,425,o),
(130,425,c),
(133,575,l),
(133,575,o),
(230,700,o),
(380,700,c),
(380,700,o),
(529,697,o),
(530,600,c),
(530,500,o),
(355,500,o),
(355,500,c),
(355,500,o),
(275,500,o),
(255,500,c),
(230,500,o),
(230,475,o),
(230,475,c),
(230,475,o),
(229,293,o),
(229,150,c),
(229,75,o),
(145,50,o),
(145,50,c),
(145,50,o),
(130,47,o),
(130,25,c),
(130,0,o),
(145,0,o),
(145,0,c),
(145,0,o),
(180,0,o),
(205,0,c),
(235,0,o),
(247,13,o),
(247,13,c),
(247,13,o),
(330,75,o),
(330,150,c),
(330,251,o),
(330,340,o),
(330,375,c),
(330,400,o),
(355,400,o),
(355,400,c),
(355,400,o),
(630,400,o),
(630,600,c),
(630,800,o),
(380,800,o),
(380,800,c),
(230,800,o),
(130,700,o),
(130,700,c),
(130,775,l),
(130,775,o),
(130,800,o),
(105,800,c),
(90,800,o),
(68,800,o),
(55,800,c),
(30,800,o),
(30,775,o),
(30,775,c)
);
}
);
width = 660;
}
);
unicode = 75;
},
{
glyphname = L;
lastChange = "2023-02-14 03:18:35 +0000";
layers = (
{
layerId = m01;
shapes = (
{
attr = {
fillColor = (0,255);
};
closed = 1;
nodes = (
(380,775,o),
(380,800,o),
(355,800,c),
(340,800,o),
(320,800,o),
(305,800,c),
(280,800,o),
(280,775,o),
(280,775,c),
(280,100,l),
(55,100,l),
(55,100,o),
(30,100,o),
(30,75,c),
(30,61,o),
(30,40,o),
(30,25,c),
(30,0,o),
(55,0,o),
(55,0,c),
(55,0,o),
(329,-2,o),
(480,0,c),
(580,0,o),
(630,75,o),
(630,125,c),
(630,143,o),
(630,175,o),
(630,175,c),
(630,175,o),
(630,200,o),
(605,200,c),
(580,200,o),
(580,175,o),
(580,175,c),
(580,175,o),
(580,100,o),
(480,100,c),
(455,100,o),
(380,100,o),
(380,100,c),
(380,775,l)
);
}
);
width = 660;
}
);
unicode = 76;
},
{
glyphname = M;
lastChange = "2023-02-17 14:53:25 +0000";
layers = (
{
layerId = m01;
shapes = (
{
attr = {
fillColor = (0,255);
};
closed = 1;
nodes = (
(30,100,l),
(30,100,o),
(30,0,o),
(130,0,c),
(230,0,o),
(305,0,o),
(305,0,c),
(305,0,o),
(330,0,o),
(330,25,c),
(330,37,o),
(330,62,o),
(330,75,c),
(330,100,o),
(305,100,o),
(305,100,c),
(230,100,l),
(230,100,o),
(130,100,o),
(130,200,c),
(130,300,o),
(135,698,o),
(135,698,c),
(409,56,l),
(409,56,o),
(435,0,o),
(480,0,c),
(505,0,o),
(530,0,o),
(530,0,c),
(530,0,o),
(555,0,o),
(555,25,c),
(555,39,o),
(555,61,o),
(555,75,c),
(555,100,o),
(530,100,o),
(530,100,c),
(500,100,o),
(474,139,o),
(447,202,c),
(362,403,o),
(251,666,o),
(251,666,c),
(251,666,o),
(315,731,o),
(348,651,c),
(395,538,o),
(608,46,o),
(608,46,c),
(608,46,o),
(630,0,o),
(680,0,c),
(705,0,o),
(730,0,o),
(730,0,c),
(730,0,o),
(755,0,o),
(755,25,c),
(755,40,o),
(755,75,o),
(755,75,c),
(755,75,o),
(755,100,o),
(730,100,c),
(704,101,o),
(650,199,o),
(650,199,c),
(428,705,l),
(428,705,o),
(395,800,o),
(305,800,c),
(230,800,o),
(215,745,o),
(215,745,c),
(215,745,o),
(195,800,o),
(130,800,c),
(30,800,o),
(30,700,o),
(30,700,c)
);
}
);
width = 785;
}
);
unicode = 77;
},
{
glyphname = N;
lastChange = "2023-02-17 15:07:37 +0000";
layers = (
{
layerId = m01;
shapes = (
{
attr = {
fillColor = (0,255);
};
closed = 1;
nodes = (
(30,25,l),
(30,25,o),
(30,0,o),
(55,0,c),
(70,0,o),
(90,0,o),
(105,0,c),
(130,0,o),
(130,25,o),
(130,25,c),
(130,225,l),
(130,225,o),
(350,23,o),
(532,199,c),
(687,348,o),
(455,700,o),
(455,700,c),
(605,700,l),
(605,700,o),
(630,700,o),
(630,725,c),
(630,739,o),
(630,763,o),
(630,775,c),
(630,800,o),
(605,800,o),
(605,800,c),
(351,800,l),
(351,800,o),
(330,800,o),
(330,775,c),
(330,764,o),
(330,743,o),
(330,725,c),
(330,703,o),
(352,685,o),
(365,667,c),
(412,602,o),
(555,366,o),
(453,261,c),
(339,144,o),
(131,323,o),
(130,450,c),
(130,500,o),
(130,775,o),
(130,775,c),
(130,775,o),
(130,800,o),
(105,800,c),
(90,800,o),
(70,800,o),
(55,800,c),
(30,800,o),
(30,775,o),
(30,775,c)
);
}
);
width = 660;
}
);
unicode = 78;
},
{
glyphname = O;
lastChange = "2023-02-14 03:23:26 +0000";
layers = (
{
layerId = m01;
shapes = (
{
attr = {
fillColor = (0,255);
};
closed = 1;
nodes = (
(630,299,o),
(617,232,o),
(593,175,c),
(568,118,o),
(533,75,o),
(488,45,c),
(443,15,o),
(390,0,o),
(329,0,c),
(270,0,o),
(218,15,o),
(173,45,c),
(127,75,o),
(93,118,o),
(67,174,c),
(42,230,o),
(30,295,o),
(30,368,c),
(30,424,l),
(30,499,o),
(41,566,o),
(66,623,c),
(91,680,o),
(126,724,o),
(171,755,c),
(217,785,o),
(269,801,o),
(328,801,c),
(388,801,o),
(441,786,o),
(487,756,c),
(533,725,o),
(568,682,o),
(593,624,c),
(617,567,o),
(630,500,o),
(630,424,c),
(630,375,l)
);
},
{
attr = {
fillColor = (0,255);
};
closed = 1;
nodes = (
(532,518,o),
(514,589,o),
(478,638,c),
(442,688,o),
(393,712,o),
(328,712,c),
(266,712,o),
(217,688,o),
(181,638,c),
(145,589,o),
(128,520,o),
(127,432,c),
(127,375,l),
(127,286,o),
(144,215,o),
(180,164,c),
(216,113,o),
(266,87,o),
(329,87,c),
(393,87,o),
(443,111,o),
(478,160,c),
(513,208,o),
(531,277,o),
(532,368,c),
(532,425,l)
);
}
);
width = 660;
}
);
unicode = 79;
},
{
glyphname = P;
lastChange = "2023-02-18 07:30:02 +0000";
layers = (
{
layerId = m01;
shapes = (
{
attr = {
fillColor = (0,255);
};
closed = 1;
nodes = (
(730,600,o),
(730,800,o),
(380,800,c),
(80,800,o),
(30,600,o),
(30,400,c),
(30,100,o),
(180,0,o),
(380,0,c),
(430,0,o),
(430,100,o),
(430,100,c),
(430,350,l),
(430,350,o),
(430,400,o),
(480,400,c),
(580,400,o),
(630,350,o),
(630,250,c),
(630,100,o),
(530,100,o),
(530,100,c),
(530,100,o),
(505,100,o),
(505,75,c),
(505,60,o),
(505,40,o),
(505,25,c),
(505,0,o),
(530,0,o),
(530,0,c),
(530,0,o),
(730,0,o),
(730,250,c),
(730,400,o),
(680,500,o),
(430,500,c),
(380,500,o),
(330,450,o),
(330,400,c),
(330,325,o),
(330,100,o),
(330,100,c),
(330,100,o),
(130,100,o),
(130,400,c),
(130,600,o),
(230,700,o),
(380,700,c),
(624,700,o),
(630,600,o),
(630,600,c),
(630,600,o),
(630,575,o),
(655,575,c),
(670,575,o),
(690,575,o),
(705,575,c),
(730,575,o),
(730,600,o),
(730,600,c)
);
}
);
width = 760;
}
);
unicode = 80;
},
{
glyphname = Q;
lastChange = "2023-02-20 14:42:40 +0000";
layers = (
{
layerId = m01;
shapes = (
{
attr = {
fillColor = (0,255);
};
closed = 1;
nodes = (
(730,650,o),
(630,800,o),
(430,800,c),
(230,800,o),
(130,650,o),
(130,550,c),
(130,400,o),
(194,358,o),
(231,343,c),
(246,337,o),
(255,325,o),
(255,300,c),
(255,100,o),
(55,100,o),
(55,100,c),
(55,100,o),
(30,100,o),
(30,75,c),
(30,61,o),
(29,39,o),
(30,25,c),
(30,0,o),
(55,0,o),
(55,0,c),
(55,0,o),
(380,0,o),
(380,375,c),
(380,392,o),
(367,396,o),
(347,401,c),
(330,405,o),
(230,450,o),
(230,550,c),
(230,650,o),
(330,700,o),
(430,700,c),
(530,700,o),
(630,650,o),
(630,550,c),
(630,450,o),
(519,405,o),
(508,400,c),
(497,396,o),
(480,390,o),
(480,375,c),
(481,298,o),
(480,25,o),
(480,25,c),
(480,25,o),
(480,0,o),
(505,0,c),
(517,0,o),
(540,0,o),
(555,0,c),
(580,0,o),
(580,25,o),
(580,25,c),
(580,25,o),
(583,300,o),
(583,324,c),
(583,334,o),
(595,341,o),
(604,346,c),
(612,350,o),
(730,400,o),
(730,550,c)
);
}
);
width = 760;
}
);
unicode = 81;
},
{
glyphname = R;
lastChange = "2023-02-20 14:36:53 +0000";
layers = (
{
layerId = m01;
shapes = (
{
attr = {
fillColor = (0,255);
};
closed = 1;
nodes = (
(30,25,l),
(30,25,o),
(30,0,o),
(55,0,c),
(68,0,o),
(91,0,o),
(105,0,c),
(130,0,o),
(130,25,o),
(130,25,c),
(130,675,l),
(130,675,o),
(130,700,o),
(155,700,c),
(230,700,o),
(330,700,o),
(330,700,c),
(330,700,o),
(480,700,o),
(480,550,c),
(480,400,o),
(355,400,o),
(355,400,c),
(355,400,o),
(330,400,o),
(330,375,c),
(330,300,o),
(330,25,o),
(330,25,c),
(330,25,o),
(330,0,o),
(355,0,c),
(380,0,o),
(555,0,o),
(555,0,c),
(555,0,o),
(580,-2,o),
(580,25,c),
(580,40,o),
(580,60,o),
(580,75,c),
(580,100,o),
(555,100,o),
(555,100,c),
(555,100,o),
(480,100,o),
(455,100,c),
(430,100,o),
(430,125,o),
(430,125,c),
(430,125,o),
(430,254,o),
(430,300,c),
(430,315,o),
(442,316,o),
(451,320,c),
(462,324,o),
(580,350,o),
(580,550,c),
(580,800,o),
(330,800,o),
(330,800,c),
(330,800,o),
(155,800,o),
(55,800,c),
(30,800,o),
(30,775,o),
(30,775,c)
);
}
);
width = 610;
}
);
unicode = 82;
},
{
glyphname = S;
lastChange = "2023-02-18 07:34:07 +0000";
layers = (
{
layerId = m01;
shapes = (
{
attr = {
fillColor = (0,255);
};
closed = 1;
nodes = (
(630,600,o),
(630,800,o),
(330,800,c),
(30,800,o),
(30,600,o),
(30,600,c),
(30,25,l),
(30,25,o),
(30,0,o),
(55,0,c),
(70,0,o),
(90,0,o),
(105,0,c),
(130,0,o),
(130,25,o),
(130,25,c),
(130,225,l),
(130,225,o),
(130,350,o),
(330,350,c),
(530,350,o),
(530,225,o),
(530,225,c),
(530,100,o),
(330,100,o),
(330,100,c),
(330,100,o),
(305,100,o),
(305,75,c),
(304,62,o),
(305,39,o),
(305,25,c),
(305,0,o),
(330,0,o),
(330,0,c),
(330,0,o),
(630,0,o),
(630,225,c),
(630,225,o),
(630,450,o),
(330,450,c),
(180,450,o),
(130,375,o),
(130,375,c),
(130,600,l),
(130,600,o),
(130,700,o),
(330,701,c),
(530,702,o),
(530,600,o),
(530,600,c),
(530,600,o),
(530,575,o),
(555,575,c),
(570,575,o),
(590,575,o),
(605,575,c),
(630,575,o),
(630,600,o),
(630,600,c)
);
}
);
width = 660;
}
);
unicode = 83;
},
{
glyphname = T;
lastChange = "2023-02-06 04:52:40 +0000";
layers = (
{
layerId = m01;
shapes = (
{
attr = {
fillColor = (0,255);
};
closed = 1;
nodes = (
(630,0,o),
(630,25,o),
(630,25,c),
(630,25,o),
(630,500,o),
(630,675,c),
(630,725,o),
(555,800,o),
(505,800,c),
(406,800,o),
(245,800,o),
(155,800,c),
(30,800,o),
(30,625,o),
(30,625,c),
(30,625,o),
(30,600,o),
(55,600,c),
(70,600,o),
(90,600,o),
(105,600,c),
(130,600,o),
(130,625,o),
(130,625,c),
(130,625,o),
(130,700,o),
(180,700,c),
(280,700,o),
(355,699,o),
(455,699,c),
(505,699,o),
(530,675,o),
(530,625,c),
(528,426,o),
(530,25,o),
(530,25,c),
(530,25,o),
(530,0,o),
(555,0,c),
(580,0,o),
(580,0,o),
(605,0,c)
);
}
);
width = 660;
}
);
unicode = 84;
},
{
glyphname = U;
lastChange = "2023-02-18 08:13:33 +0000";
layers = (
{
layerId = m01;
shapes = (
{
attr = {
fillColor = (0,255);
};
closed = 1;
nodes = (
(30,775,o),
(30,500,o),
(30,300,c),
(30,0,o),
(330,0,o),
(330,0,c),
(430,0,l),
(430,0,o),
(730,0,o),
(730,300,c),
(730,400,o),
(730,500,o),
(730,600,c),
(730,800,o),
(530,800,o),
(530,800,c),
(530,800,o),
(330,800,o),
(330,600,c),
(330,400,o),
(330,100,o),
(330,100,c),
(330,100,o),
(130,100,o),
(130,300,c),
(130,500,o),
(130,775,o),
(130,775,c),
(130,775,o),
(130,800,o),
(105,800,c),
(93,800,o),
(69,800,o),
(55,800,c),
(30,800,o),
(30,775,o),
(30,775,c)
);
},
{
attr = {
fillColor = (0,255);
};
closed = 1;
nodes = (
(430,100,o),
(430,500,o),
(430,600,c),
(430,701,o),
(530,700,o),
(530,700,c),
(530,700,o),
(630,700,o),
(630,600,c),
(630,500,o),
(630,400,o),
(630,300,c),
(630,100,o),
(430,100,o),
(430,100,c)
);
}
);
width = 760;
}
);
unicode = 85;
},
{
glyphname = V;
lastChange = "2023-02-22 13:27:33 +0000";
layers = (
{
layerId = m01;
shapes = (
{
attr = {
fillColor = (0,255);
};
closed = 1;
nodes = (
(30,25,l),
(30,25,o),
(30,0,o),
(55,0,c),
(68,0,o),
(94,-1,o),
(105,-1,c),
(120,-1,o),
(132,7,o),
(132,7,c),
(132,7,o),
(730,325,o),
(730,600,c),
(730,600,o),
(730,800,o),
(530,800,c),
(330,800,o),
(330,625,o),
(330,625,c),
(330,625,o),
(330,600,o),
(355,600,c),
(369,600,o),
(391,600,o),
(405,600,c),
(430,600,o),
(430,625,o),
(430,625,c),
(430,625,o),
(430,700,o),
(530,700,c),
(630,700,o),
(630,600,o),
(630,600,c),
(630,375,o),
(130,100,o),
(130,100,c),
(130,775,l),
(130,775,o),
(130,800,o),
(105,800,c),
(92,800,o),
(70,800,o),
(55,800,c),
(30,800,o),
(30,775,o),
(30,775,c)
);
}
);
width = 760;
}
);
unicode = 86;
},
{
glyphname = W;
lastChange = "2023-02-22 13:36:16 +0000";
layers = (
{
layerId = m01;
shapes = (
{
attr = {
fillColor = (0,255);
};
closed = 1;
nodes = (
(30,25,l),
(30,25,o),
(30,0,o),
(55,0,c),
(70,0,o),
(90,0,o),
(105,0,c),
(120,0,o),
(154,9,o),
(167,17,c),
(297,100,o),
(630,300,o),
(630,600,c),
(630,600,o),
(630,700,o),
(730,700,c),
(730,700,o),
(830,700,o),
(830,600,c),
(830,425,o),
(482,100,o),
(355,50,c),
(346,46,o),
(330,36,o),
(330,25,c),
(330,0,o),
(355,0,o),
(355,0,c),
(355,0,o),
(389,0,o),
(405,0,c),
(420,0,o),
(436,7,o),
(447,16,c),
(560,99,o),
(930,350,o),
(930,600,c),
(930,800,o),
(730,800,o),
(730,800,c),
(630,800,o),
(580,743,o),
(580,743,c),
(580,743,o),
(551,800,o),
(430,800,c),
(230,800,o),
(230,625,o),
(230,625,c),
(230,625,o),
(229,600,o),
(255,600,c),
(269,601,o),
(290,600,o),
(305,600,c),
(330,600,o),
(330,625,o),
(330,625,c),
(330,625,o),
(330,700,o),
(430,700,c),
(530,700,o),
(530,600,o),
(530,600,c),
(530,300,o),
(130,100,o),
(130,100,c),
(130,775,l),
(130,775,o),
(130,800,o),
(105,800,c),
(93,800,o),
(69,800,o),
(55,800,c),
(30,800,o),
(30,775,o),
(30,775,c)
);
}
);
width = 960;
}
);
unicode = 87;
},
{
glyphname = X;
lastChange = "2023-02-28 13:28:28 +0000";
layers = (
{
layerId = m01;
shapes = (
{
attr = {
fillColor = (0,255);
};
closed = 1;
nodes = (
(83,800,o),
(102,801,o),
(117,800,c),
(132,800,o),
(147,775,o),
(147,775,c),
(316,494,l),
(487,775,l),
(487,775,o),
(502,800,o),
(517,800,c),
(533,801,o),
(548,800,o),
(567,800,c),
(617,800,o),
(602,775,o),
(602,775,c),
(375,404,l),
(602,25,l),
(602,25,o),
(617,0,o),
(567,0,c),
(552,0,o),
(532,0,o),
(517,0,c),
(502,0,o),
(487,25,o),
(487,25,c),
(316,312,l),
(147,25,l),
(147,25,o),
(132,0,o),
(117,0,c),
(102,0,o),
(81,0,o),
(67,0,c),
(17,0,o),
(32,25,o),
(32,25,c),
(257,404,l),
(32,775,l),
(32,775,o),
(17,800,o),
(67,800,c)
);
}
);
width = 634;
}
);
unicode = 88;
},
{
glyphname = Y;
lastChange = "2023-02-28 13:37:21 +0000";
layers = (
{
layerId = m01;
shapes = (
{
attr = {
fillColor = (0,255);
};
closed = 1;
nodes = (
(730,650,o),
(730,800,o),
(580,800,c),
(430,800,o),
(430,650,o),
(430,650,c),
(430,650,o),
(430,625,o),
(455,625,c),
(467,624,o),
(491,625,o),
(505,625,c),
(530,625,o),
(530,650,o),
(530,650,c),
(530,650,o),
(530,700,o),
(580,700,c),
(630,700,o),
(630,650,o),
(630,650,c),
(629,501,o),
(205,265,o),
(205,265,c),
(205,265,o),
(230,608,o),
(230,775,c),
(230,800,o),
(205,800,o),
(205,800,c),
(155,800,l),
(155,800,o),
(130,800,o),
(130,775,c),
(131,707,o),
(124,499,o),
(106,299,c),
(99,224,o),
(93,102,o),
(49,44,c),
(43,36,o),
(30,30,o),
(30,25,c),
(30,0,o),
(55,0,o),
(55,0,c),
(55,0,o),
(115,0,o),
(130,0,c),
(145,0,o),
(155,25,o),
(155,25,c),
(155,25,o),
(185,101,o),
(231,145,c),
(303,216,o),
(730,401,o),
(730,650,c)
);
}
);
width = 760;
}
);
unicode = 89;
},
{
glyphname = Z;
lastChange = "2023-02-28 13:49:51 +0000";
layers = (
{
layerId = m01;
shapes = (
{
attr = {
fillColor = (0,255);
};
closed = 1;
nodes = (
(355,800,o),
(330,800,o),
(330,775,c),
(330,762,o),
(330,738,o),
(330,725,c),
(330,700,o),
(355,700,o),
(355,700,c),
(805,700,l),
(630,525,l),
(630,525,o),
(630,585,o),
(530,585,c),
(480,585,o),
(352,514,o),
(230,400,c),
(136,312,o),
(30,200,o),
(30,100,c),
(30,50,o),
(80,0,o),
(130,0,c),
(180,0,o),
(263,67,o),
(330,125,c),
(429,213,o),
(530,315,o),
(530,315,c),
(530,315,o),
(530,197,o),
(530,100,c),
(530,0,o),
(632,0,o),
(632,0,c),
(632,0,o),
(785,0,o),
(805,0,c),
(830,1,o),
(830,25,o),
(830,25,c),
(830,75,l),
(830,75,o),
(830,100,o),
(805,100,c),
(780,100,o),
(680,100,o),
(680,100,c),
(680,100,o),
(630,100,o),
(630,150,c),
(630,300,o),
(630,400,o),
(630,400,c),
(879,648,l),
(879,648,o),
(930,700,o),
(930,725,c),
(930,740,o),
(930,763,o),
(930,775,c),
(930,800,o),
(905,800,o),
(905,800,c),
(355,800,l)
);
},
{
attr = {
fillColor = (0,255);
};
closed = 1;
nodes = (
(523,430,o),
(410,328,o),
(326,252,c),
(276,206,o),
(230,165,o),
(180,165,c),
(155,165,o),
(207,241,o),
(286,325,c),
(350,395,o),
(447,485,o),
(500,486,c),
(530,487,o),
(523,430,o),
(523,430,c)
);
}
);
width = 960;
}
);
unicode = 90;
},
{
glyphname = a;
lastChange = "2023-03-11 14:36:57 +0000";
layers = (
{
layerId = m01;
shapes = (
{
attr = {
fillColor = (0,255);
};
closed = 1;
nodes = (
(605,550,o),
(569,599,o),
(430,600,c),
(331,601,o),
(215,500,o),
(215,500,c),
(215,575,l),
(215,575,o),
(215,600,o),
(190,600,c),
(179,600,o),
(166,601,o),
(155,600,c),
(130,600,o),
(130,575,o),
(130,575,c),
(130,575,o),
(129,462,o),
(130,301,c),
(130,199,o),
(131,-2,o),
(86,-100,c),
(71,-132,o),
(30,-150,o),
(30,-175,c),
(30,-200,o),
(55,-200,o),
(55,-200,c),
(55,-200,o),
(80,-200,o),
(105,-200,c),
(130,-200,o),
(166,-175,o),
(183,-102,c),
(207,-2,o),
(215,100,o),
(215,100,c),
(215,100,o),
(230,50,o),
(380,50,c),
(580,50,o),
(580,245,o),
(580,245,c),
(580,245,o),
(580,400,o),
(380,400,c),
(257,400,o),
(215,332,o),
(215,332,c),
(215,415,l),
(215,415,o),
(305,515,o),
(430,515,c),
(555,515,o),
(554,499,o),
(578,473,c),
(584,467,o),
(605,450,o),
(605,475,c),
(605,500,o),
(605,505,o),
(605,525,c)
);
},
{
attr = {
fillColor = (0,255);
};
closed = 1;
nodes = (
(215,244,l),
(215,244,o),
(284,316,o),
(380,315,c),
(495,315,o),
(495,245,o),
(495,245,c),
(495,245,o),
(495,135,o),
(380,135,c),
(280,135,o),
(215,185,o),
(215,185,c)
);
}
);
width = 635;
}
);
unicode = 97;
},
{
glyphname = b;
lastChange = "2023-03-11 14:35:28 +0000";
layers = (
{
layerId = m01;
shapes = (
{
attr = {
fillColor = (0,255);
};
closed = 1;
nodes = (
(315,685,l),
(315,685,o),
(315,700,o),
(300,700,c),
(289,700,o),
(260,700,o),
(245,700,c),
(230,700,o),
(230,685,o),
(230,685,c),
(230,500,l),
(230,500,o),
(30,450,o),
(30,235,c),
(30,0,o),
(280,0,o),
(280,0,c),
(374,1,o),
(404,9,o),
(430,23,c),
(455,36,o),
(455,46,o),
(455,46,c),
(455,85,l),
(455,85,o),
(455,110,o),
(430,101,c),
(404,93,o),
(398,86,o),
(280,85,c),
(280,85,o),
(115,85,o),
(115,250,c),
(115,365,o),
(230,415,o),
(230,415,c),
(230,215,l),
(230,215,o),
(230,200,o),
(245,200,c),
(270,200,o),
(380,200,o),
(380,200,c),
(380,200,o),
(530,200,o),
(530,375,c),
(530,560,o),
(314,513,o),
(314,513,c)
);
},
{
attr = {
fillColor = (0,255);
};
closed = 1;
nodes = (
(315,434,o),
(445,475,o),
(445,375,c),
(445,285,o),
(380,285,o),
(380,285,c),
(380,285,o),
(342,285,o),
(330,285,c),
(315,286,o),
(315,300,o),
(315,300,c),
(315,434,l)
);
}
);
width = 560;
}
);
unicode = 98;
},
{
glyphname = c;
lastChange = "2023-03-11 14:44:06 +0000";
layers = (
{
layerId = m01;
shapes = (
{
attr = {
fillColor = (0,255);
};
closed = 1;
nodes = (
(530,450,l),
(530,450,o),
(527,700,o),
(330,700,c),
(30,700,o),
(30,345,o),
(30,345,c),
(30,345,o),
(30,0,o),
(330,0,c),
(330,0,o),
(345,1,o),
(345,15,c),
(345,26,o),
(345,55,o),
(345,70,c),
(345,85,o),
(330,85,o),
(330,85,c),
(111,87,o),
(115,345,o),
(115,345,c),
(115,345,o),
(115,615,o),
(330,615,c),
(445,616,o),
(445,450,o),
(445,450,c),
(445,265,l),
(445,265,o),
(445,250,o),
(460,250,c),
(470,250,o),
(505,250,o),
(515,250,c),
(531,250,o),
(530,265,o),
(530,265,c)
);
}
);
width = 560;
}
);
unicode = 99;
},
{
glyphname = d;
lastChange = "2023-03-18 14:46:55 +0000";
layers = (
{
layerId = m01;
shapes = (
{
attr = {
fillColor = (0,255);
};
closed = 1;
nodes = (
(410,785,o),
(410,800,o),
(395,800,c),
(380,800,o),
(360,800,o),
(345,800,c),
(330,800,o),
(330,785,o),
(330,785,c),
(330,500,l),
(330,500,o),
(30,500,o),
(30,250,c),
(30,0,o),
(330,0,o),
(330,0,c),
(395,0,l),
(395,0,o),
(410,0,o),
(410,15,c),
(409,97,o),
(410,415,o),
(410,415,c),
(615,415,l),
(615,415,o),
(630,415,o),
(630,430,c),
(630,441,o),
(630,473,o),
(630,485,c),
(630,500,o),
(615,500,o),
(615,500,c),
(410,500,l),
(410,785,l)
);
},
{
attr = {
fillColor = (0,255);
};
closed = 1;
nodes = (
(330,415,o),
(330,201,o),
(330,100,c),
(330,80,o),
(315,80,o),
(315,80,c),
(315,80,o),
(110,80,o),
(110,250,c),
(110,415,o),
(330,415,o),
(330,415,c)
);
}
);
width = 660;
}
);
unicode = 100;
},
{
glyphname = e;
lastChange = "2023-03-18 15:02:11 +0000";
layers = (
{
layerId = m01;
shapes = (
{
attr = {
fillColor = (0,255);
};
closed = 1;
nodes = (
(30,100,o),
(126,0,o),
(251,0,c),
(526,1,o),
(526,300,o),
(526,300,c),
(526,300,o),
(526,600,o),
(276,600,c),
(126,600,o),
(34,500,o),
(34,500,c),
(34,500,o),
(29,494,o),
(43,488,c),
(52,483,o),
(79,474,o),
(89,471,c),
(98,468,o),
(106,476,o),
(106,476,c),
(106,476,o),
(151,523,o),
(276,523,c),
(444,522,o),
(444,350,o),
(444,350,c),
(126,350,l),
(126,350,o),
(111,350,o),
(111,335,c),
(111,320,o),
(111,305,o),
(111,290,c),
(111,275,o),
(126,275,o),
(126,275,c),
(444,275,l),
(444,275,o),
(444,80,o),
(251,80,c),
(151,80,o),
(100,127,o),
(100,127,c),
(100,127,o),
(91,135,o),
(81,131,c),
(72,128,o),
(49,118,o),
(40,114,c),
(27,107,o),
(30,100,o),
(30,100,c)
);
}
);
width = 556;
}
);
unicode = 101;
},
{
glyphname = f;
lastChange = "2023-04-18 14:42:20 +0000";
layers = (
{
layerId = m01;
shapes = (
{
attr = {
fillColor = (0,255);
};
closed = 1;
nodes = (
(30,15,o),
(30,0,o),
(45,0,c),
(60,0,o),
(85,0,o),
(100,0,c),
(115,0,o),
(115,14,o),
(115,14,c),
(115,14,o),
(115,375,o),
(115,550,c),
(115,600,o),
(130,615,o),
(180,615,c),
(265,616,o),
(322,615,o),
(407,615,c),
(447,615,o),
(445,515,o),
(445,515,c),
(445,515,o),
(445,500,o),
(460,500,c),
(472,500,o),
(502,500,o),
(515,500,c),
(530,500,o),
(530,515,o),
(530,515,c),
(530,515,o),
(514,700,o),
(430,700,c),
(354,700,o),
(213,700,o),
(130,700,c),
(80,700,o),
(30,650,o),
(30,600,c),
(31,429,o),
(30,15,o),
(30,15,c)
);
}
);
width = 560;
}
);
unicode = 102;
},
{
glyphname = g;
lastChange = "2023-04-23 05:18:21 +0000";
layers = (
{
layerId = m01;
shapes = (
{
attr = {
fillColor = (0,255);
};
closed = 1;
nodes = (
(330,-200,o),
(398,-201,o),
(415,-200,c),
(428,-200,o),
(430,-185,o),
(430,-185,c),
(430,-130,l),
(430,-130,o),
(430,-115,o),
(415,-115,c),
(400,-115,o),
(330,-115,o),
(330,-115,c),
(330,-115,o),
(115,-115,o),
(115,200,c),
(115,515,o),
(430,515,o),
(430,515,c),
(430,515,o),
(445,515,o),
(445,500,c),
(445,485,o),
(445,385,o),
(445,385,c),
(445,385,o),
(365,385,o),
(345,385,c),
(330,385,o),
(330,370,o),
(330,370,c),
(330,315,l),
(330,315,o),
(330,300,o),
(345,300,c),
(365,300,o),
(445,300,o),
(445,300,c),
(445,300,o),
(445,145,o),
(445,115,c),
(445,100,o),
(460,100,o),
(460,100,c),
(515,100,l),
(515,100,o),
(530,100,o),
(530,115,c),
(530,145,o),
(530,300,o),
(530,300,c),
(530,300,o),
(600,300,o),
(615,300,c),
(630,300,o),
(630,315,o),
(630,315,c),
(630,370,l),
(630,370,o),
(630,385,o),
(615,385,c),
(597,385,o),
(530,385,o),
(530,385,c),
(530,385,o),
(530,547,o),
(530,584,c),
(530,599,o),
(515,600,o),
(515,600,c),
(430,600,l),
(430,600,o),
(30,600,o),
(30,200,c),
(30,-200,o),
(330,-200,o),
(330,-200,c)
);
}
);
width = 660;
}
);
unicode = 103;
},
{
glyphname = h;
lastChange = "2023-04-23 05:32:49 +0000";
layers = (
{
layerId = m01;
shapes = (
{
attr = {
fillColor = (0,255);
};
closed = 1;
nodes = (
(30,595,o),
(30,103,o),
(30,15,c),
(30,0,o),
(45,0,o),
(45,0,c),
(100,0,l),
(100,0,o),
(110,0,o),
(110,15,c),
(110,55,o),
(110,242,o),
(110,242,c),
(110,242,o),
(130,280,o),
(230,280,c),
(350,280,o),
(350,200,o),
(350,200,c),
(350,200,o),
(350,47,o),
(350,15,c),
(350,0,o),
(365,0,o),
(365,0,c),
(415,0,l),
(415,0,o),
(430,0,o),
(430,15,c),
(430,33,o),
(430,50,o),
(430,200,c),
(430,352,o),
(330,350,o),
(330,350,c),
(330,350,o),
(380,357,o),
(380,447,c),
(380,472,o),
(380,476,o),
(380,485,c),
(380,500,o),
(365,500,o),
(365,500,c),
(325,500,l),
(325,500,o),
(310,500,o),
(310,485,c),
(310,476,o),
(310,450,o),
(310,450,c),
(310,450,o),
(310,350,o),
(230,350,c),
(176,349,o),
(110,325,o),
(110,325,c),
(110,325,o),
(109,594,o),
(110,685,c),
(110,700,o),
(95,700,o),
(95,700,c),
(45,700,l),
(45,700,o),
(30,700,o),
(30,685,c)
);
}
);
width = 460;
}
);
unicode = 104;
},
{
glyphname = i;
lastChange = "2023-04-26 12:57:51 +0000";
layers = (
{
layerId = m01;
shapes = (
{
attr = {
fillColor = (0,255);
};
closed = 1;
nodes = (
(30,485,o),
(30,100,o),
(30,15,c),
(30,0,o),
(45,0,o),
(45,0,c),
(100,0,l),
(100,0,o),
(115,-2,o),
(115,15,c),
(115,100,o),
(115,485,o),
(115,585,c),
(115,600,o),
(100,600,o),
(100,600,c),
(45,600,l),
(45,600,o),
(30,600,o),
(30,585,c)
);
}
);
width = 145;
}
);
unicode = 105;
},
{
glyphname = j;
lastChange = "2023-04-26 13:06:26 +0000";
layers = (
{
layerId = m01;
shapes = (
{
attr = {
fillColor = (0,255);
};
closed = 1;
nodes = (
(30,585,o),
(30,370,o),
(30,185,c),
(30,85,o),
(115,0,o),
(230,0,c),
(345,0,o),
(431,97,o),
(430,185,c),
(430,185,o),
(430,200,o),
(415,200,c),
(404,200,o),
(371,200,o),
(360,200,c),
(345,200,o),
(345,185,o),
(345,185,c),
(345,185,o),
(345,83,o),
(230,83,c),
(112,83,o),
(112,185,o),
(112,185,c),
(115,315,l),
(115,315,o),
(330,315,o),
(415,315,c),
(430,315,o),
(430,328,o),
(430,328,c),
(430,385,l),
(430,385,o),
(430,400,o),
(415,400,c),
(330,400,o),
(115,400,o),
(115,400,c),
(115,400,o),
(115,585,o),
(115,685,c),
(115,700,o),
(100,700,o),
(100,700,c),
(45,700,l),
(45,700,o),
(30,700,o),
(30,685,c)
);
}
);
width = 460;
}
);
unicode = 106;
},
{
glyphname = k;
lastChange = "2023-04-29 07:42:36 +0000";
layers = (
{
layerId = m01;
shapes = (
{
attr = {
fillColor = (0,255);
};
closed = 1;
nodes = (
(31,398,o),
(30,215,o),
(30,165,c),
(30,150,o),
(45,150,o),
(45,150,c),
(90,150,l),
(90,150,o),
(104,148,o),
(105,165,c),
(105,215,o),
(105,300,o),
(105,300,c),
(105,300,o),
(169,417,o),
(280,415,c),
(280,415,o),
(405,410,o),
(405,325,c),
(405,250,o),
(245,250,o),
(245,250,c),
(195,250,l),
(195,250,o),
(180,248,o),
(180,235,c),
(180,185,o),
(180,25,o),
(180,-75,c),
(180,-160,o),
(130,-170,o),
(130,-185,c),
(130,-200,o),
(145,-200,o),
(145,-200,c),
(145,-200,o),
(165,-200,o),
(180,-200,c),
(195,-200,o),
(255,-160,o),
(255,-75,c),
(255,25,o),
(254,103,o),
(255,150,c),
(255,165,o),
(265,165,o),
(265,165,c),
(265,165,o),
(480,165,o),
(480,325,c),
(480,500,o),
(280,500,o),
(280,500,c),
(170,500,o),
(105,415,o),
(105,415,c),
(105,415,o),
(105,441,o),
(105,485,c),
(105,500,o),
(95,500,o),
(95,500,c),
(45,500,l),
(45,500,o),
(30,500,o),
(30,485,c)
);
}
);
width = 510;
}
);
unicode = 107;
},
{
glyphname = l;
lastChange = "2023-04-29 07:45:48 +0000";
layers = (
{
layerId = m01;
shapes = (
{
attr = {
fillColor = (0,255);
};
closed = 1;
nodes = (
(330,70,o),
(330,85,o),
(315,85,c),
(245,85,o),
(230,85,o),
(130,85,c),
(116,85,o),
(115,100,o),
(115,100,c),
(115,100,o),
(115,700,o),
(115,785,c),
(115,801,o),
(98,800,o),
(98,800,c),
(45,800,l),
(45,800,o),
(30,800,o),
(30,785,c),
(30,700,o),
(30,15,o),
(30,15,c),
(30,15,o),
(30,0,o),
(45,0,c),
(130,0,o),
(245,0,o),
(315,0,c),
(330,0,o),
(330,15,o),
(330,15,c),
(330,70,l)
);
}
);
width = 360;
}
);
unicode = 108;
},
{
glyphname = m;
lastChange = "2023-05-10 13:42:21 +0000";
layers = (
{
layerId = m01;
shapes = (
{
attr = {
fillColor = (0,255);
};
closed = 1;
nodes = (
(30,75,l),
(30,75,o),
(30,0,o),
(105,0,c),
(189,0,o),
(226,0,o),
(265,0,c),
(280,0,o),
(280,15,o),
(280,15,c),
(280,60,l),
(280,60,o),
(280,75,o),
(265,75,c),
(230,75,o),
(195,75,o),
(195,75,c),
(195,75,o),
(115,75,o),
(115,150,c),
(114,225,o),
(115,525,o),
(115,525,c),
(341,42,l),
(341,42,o),
(362,0,o),
(395,0,c),
(440,0,o),
(452,0,o),
(465,0,c),
(480,0,o),
(480,15,o),
(480,15,c),
(480,60,l),
(480,60,o),
(480,75,o),
(465,75,c),
(408,76,o),
(395,104,o),
(373,152,c),
(303,302,o),
(211,500,o),
(211,500,c),
(211,500,o),
(264,549,o),
(291,489,c),
(330,404,o),
(505,34,o),
(505,34,c),
(505,34,o),
(520,0,o),
(565,0,c),
(605,-1,o),
(616,0,o),
(630,0,c),
(645,0,o),
(645,12,o),
(645,12,c),
(645,60,l),
(645,60,o),
(645,72,o),
(630,72,c),
(570,72,o),
(539,149,o),
(539,149,c),
(357,530,l),
(357,530,o),
(330,600,o),
(255,600,c),
(193,600,o),
(180,560,o),
(180,560,c),
(180,560,o),
(160,600,o),
(105,600,c),
(30,600,o),
(30,525,o),
(30,525,c)
);
}
);
width = 675;
}
);
unicode = 109;
},
{
glyphname = n;
lastChange = "2023-05-27 07:52:46 +0000";
layers = (
{
layerId = m01;
shapes = (
{
attr = {
fillColor = (0,255);
};
closed = 1;
nodes = (
(29,505,o),
(30,96,o),
(30,15,c),
(30,0,o),
(45,0,o),
(45,0,c),
(100,0,l),
(100,0,o),
(115,0,o),
(115,15,c),
(115,35,o),
(115,145,o),
(115,145,c),
(115,145,o),
(329,-52,o),
(487,94,c),
(629,225,o),
(430,515,o),
(430,515,c),
(430,515,o),
(515,515,o),
(565,515,c),
(580,515,o),
(580,531,o),
(580,531,c),
(580,585,l),
(580,585,o),
(579,599,o),
(565,600,c),
(515,600,o),
(425,600,o),
(345,600,c),
(330,600,o),
(330,585,o),
(330,585,c),
(330,585,o),
(330,533,o),
(330,515,c),
(330,500,o),
(517,270,o),
(427,153,c),
(341,42,o),
(115,215,o),
(115,300,c),
(115,350,o),
(115,504,o),
(115,585,c),
(115,600,o),
(100,600,o),
(100,600,c),
(45,600,l),
(45,600,o),
(30,600,o),
(30,585,c)
);
}
);
width = 610;
}
);
unicode = 110;
},
{
glyphname = o;
lastChange = "2023-05-27 07:18:59 +0000";
layers = (
{
layerId = m01;
shapes = (
{
attr = {
fillColor = (0,255);
};
closed = 1;
nodes = (
(435,224,o),
(426,174,o),
(410,131,c),
(393,89,o),
(370,56,o),
(339,34,c),
(309,11,o),
(273,0,o),
(233,0,c),
(193,0,o),
(158,11,o),
(127,34,c),
(96,56,o),
(73,89,o),
(56,131,c),
(39,173,o),
(30,221,o),
(30,276,c),
(30,318,l),
(30,375,o),
(38,424,o),
(55,467,c),
(72,510,o),
(95,543,o),
(126,566,c),
(157,589,o),
(192,600,o),
(232,600,c),
(272,600,o),
(308,589,o),
(339,567,c),
(369,544,o),
(393,511,o),
(410,468,c),
(426,425,o),
(435,375,o),
(435,318,c),
(435,281,l)
);
},
{
attr = {
fillColor = (0,255);
};
closed = 1;
nodes = (
(356,389,o),
(348,428,o),
(324,465,c),
(300,502,o),
(274,517,o),
(231,517,c),
(189,517,o),
(165,505,o),
(140,468,c),
(116,431,o),
(109,388,o),
(109,322,c),
(109,283,l),
(109,216,o),
(116,170,o),
(141,132,c),
(165,93,o),
(190,80,o),
(232,80,c),
(275,80,o),
(302,97,o),
(326,133,c),
(349,169,o),
(356,209,o),
(357,277,c),
(356,320,l)
);
}
);
width = 465;
}
);
unicode = 111;
},
{
glyphname = p;
lastChange = "2023-05-27 07:26:23 +0000";
layers = (
{
layerId = m01;
shapes = (
{
attr = {
fillColor = (0,255);
};
closed = 1;
nodes = (
(530,530,o),
(511,600,o),
(330,600,c),
(30,600,o),
(30,315,o),
(30,315,c),
(30,50,o),
(245,50,o),
(245,50,c),
(245,50,o),
(230,-185,o),
(155,-185,c),
(140,-185,o),
(140,-200,o),
(155,-200,c),
(162,-200,o),
(203,-200,o),
(230,-200,c),
(330,-200,o),
(330,50,o),
(330,50,c),
(330,50,o),
(590,50,o),
(590,225,c),
(590,401,o),
(405,400,o),
(405,400,c),
(245,400,o),
(245,275,o),
(245,275,c),
(245,125,l),
(245,125,o),
(115,125,o),
(115,315,c),
(115,315,o),
(115,515,o),
(330,515,c),
(515,517,o),
(515,465,o),
(515,465,c),
(515,450,o),
(530,450,o),
(530,465,c),
(530,472,o),
(530,505,o),
(530,515,c)
);
},
{
attr = {
fillColor = (0,255);
};
closed = 1;
nodes = (
(330,245,l),
(330,245,o),
(330,315,o),
(405,315,c),
(505,315,o),
(505,225,o),
(505,225,c),
(505,125,o),
(330,125,o),
(330,125,c)
);
}
);
width = 620;
}
);
unicode = 112;
},
{
glyphname = q;
lastChange = "2023-05-27 07:37:51 +0000";
layers = (
{
layerId = m01;
shapes = (
{
attr = {
fillColor = (0,255);
};
closed = 1;
nodes = (
(530,500,o),
(430,600,o),
(305,600,c),
(180,600,o),
(95,500,o),
(95,415,c),
(95,250,o),
(230,250,o),
(230,250,c),
(230,0,o),
(45,0,o),
(45,0,c),
(45,0,o),
(30,0,o),
(30,-15,c),
(30,-26,o),
(29,-73,o),
(30,-85,c),
(31,-99,o),
(45,-100,o),
(45,-100,c),
(45,-100,o),
(315,-100,o),
(315,285,c),
(315,300,o),
(295,300,o),
(295,300,c),
(295,300,o),
(180,300,o),
(180,415,c),
(180,490,o),
(230,515,o),
(305,515,c),
(380,515,o),
(445,482,o),
(445,415,c),
(445,315,o),
(445,115,o),
(445,15,c),
(445,0,o),
(460,0,o),
(460,0,c),
(515,0,l),
(515,0,o),
(530,0,o),
(530,15,c),
(530,115,o),
(530,315,o),
(530,415,c)
);
}
);
width = 560;
}
);
unicode = 113;
},
{
glyphname = r;
lastChange = "2023-06-03 14:46:30 +0000";
layers = (
{
layerId = m01;
shapes = (
{
attr = {
fillColor = (0,255);
};
closed = 1;
nodes = (
(30,400,o),
(30,94,o),
(30,15,c),
(30,0,o),
(45,0,o),
(45,0,c),
(100,0,l),
(100,0,o),
(115,0,o),
(115,15,c),
(115,93,o),
(115,400,o),
(115,400,c),
(115,400,o),
(151,514,o),
(245,515,c),
(245,515,o),
(345,515,o),
(345,420,c),
(345,300,o),
(260,300,o),
(260,300,c),
(260,300,o),
(245,300,o),
(245,285,c),
(245,185,o),
(245,-85,o),
(245,-85,c),
(245,-85,o),
(245,-100,o),
(260,-100,c),
(310,-100,o),
(390,-100,o),
(415,-100,c),
(430,-100,o),
(430,-85,o),
(430,-85,c),
(430,-30,l),
(430,-30,o),
(428,-15,o),
(415,-15,c),
(404,-15,o),
(370,-15,o),
(345,-15,c),
(330,-15,o),
(330,0,o),
(330,0,c),
(330,0,o),
(330,103,o),
(330,230,c),
(330,245,o),
(345,245,o),
(345,245,c),
(345,245,o),
(430,245,o),
(430,420,c),
(430,600,o),
(245,600,o),
(245,600,c),
(143,600,o),
(115,526,o),
(115,526,c),
(115,526,o),
(115,562,o),
(115,585,c),
(115,600,o),
(90,600,o),
(90,600,c),
(45,600,l),
(45,600,o),
(30,600,o),
(30,585,c)
);
}
);
width = 460;
}
);
unicode = 114;
},
{
glyphname = s;
lastChange = "2023-06-17 09:48:40 +0000";
layers = (
{
layerId = m01;
shapes = (
{
attr = {
fillColor = (0,255);
};
closed = 1;
nodes = (
(480,450,o),
(480,600,o),
(255,600,c),
(30,600,o),
(30,450,o),
(30,450,c),
(30,15,l),
(30,15,o),
(30,0,o),
(45,0,c),
(56,0,o),
(90,0,o),
(100,0,c),
(115,0,o),
(115,15,o),
(115,15,c),
(115,180,l),
(115,180,o),
(115,275,o),
(255,275,c),
(402,280,o),
(395,180,o),
(395,180,c),
(394,82,o),
(330,85,o),
(330,85,c),
(330,85,o),
(315,85,o),
(315,70,c),
(315,55,o),
(315,30,o),
(315,15,c),
(315,4,o),
(330,0,o),
(330,0,c),
(330,0,o),
(480,0,o),
(480,180,c),
(480,180,o),
(480,350,o),
(255,350,c),
(140,350,o),
(115,285,o),
(115,285,c),
(115,450,l),
(115,450,o),
(105,524,o),
(253,524,c),
(403,525,o),
(395,450,o),
(395,450,c),
(395,450,o),
(395,435,o),
(410,435,c),
(425,435,o),
(450,435,o),
(465,435,c),
(480,435,o),
(480,450,o),
(480,450,c)
);
}
);
width = 510;
}
);
unicode = 115;
},
{
glyphname = t;
lastChange = "2023-04-18 14:42:49 +0000";
layers = (
{
layerId = m01;
shapes = (
{
attr = {
fillColor = (0,255);
};
closed = 1;
nodes = (
(530,15,o),
(529,429,o),
(530,600,c),
(530,650,o),
(480,700,o),
(430,700,c),
(347,700,o),
(206,700,o),
(130,700,c),
(46,700,o),
(30,515,o),
(30,515,c),
(30,515,o),
(30,500,o),
(45,500,c),
(58,500,o),
(88,500,o),
(100,500,c),
(115,500,o),
(115,515,o),
(115,515,c),
(115,515,o),
(113,615,o),
(153,615,c),
(238,615,o),
(295,616,o),
(380,615,c),
(430,615,o),
(445,600,o),
(445,550,c),
(445,375,o),
(445,14,o),
(445,14,c),
(445,14,o),
(445,0,o),
(460,0,c),
(475,0,o),
(500,0,o),
(515,0,c),
(530,0,o),
(530,15,o),
(530,15,c)
);
}
);
width = 560;
}
);
unicode = 116;
},
